<svg width="50" height="43" viewBox="0 0 50 43" xmlns="http://www.w3.org/2000/svg"><title>Imported Layers 4</title><g fill="none" fill-rule="evenodd"><g fill="#D0D0D0"><path d="M33.052 24.776c-1.877 0-3.4 2.106-3.4 4.705 0 2.6 1.523 4.708 3.4 4.708s3.4-2.107 3.4-4.707c0-2.598-1.523-4.704-3.4-4.704zM44.89 12.53c.386-.956.406-6.382-1.66-11.576 0 0-4.736.52-11.903 5.437-1.502-.414-4.046-.62-6.59-.62-2.54 0-5.084.206-6.587.62C10.983 1.474 6.247.955 6.247.955 4.182 6.148 4.2 11.574 4.587 12.53 2.163 15.163.68 18.326.68 22.65c0 18.793 15.59 19.094 19.526 19.094l4.532.005c1.872-.004 3.643-.006 4.533-.006 3.937 0 19.527-.3 19.527-19.094 0-4.323-1.482-7.486-3.908-10.12zM24.81 39.433h-.147C14.8 39.434 7.12 38.256 7.12 28.67c0-2.295.81-4.427 2.735-6.196 3.212-2.947 8.644-1.386 14.81-1.386.023 0 .05 0 .073-.002l.074.002c6.166 0 11.6-1.56 14.81 1.386 1.925 1.77 2.735 3.9 2.735 6.197 0 9.586-7.68 10.764-17.545 10.764zm-8.388-14.658c-1.876 0-3.398 2.106-3.398 4.705 0 2.6 1.522 4.708 3.398 4.708 1.88 0 3.4-2.107 3.4-4.707 0-2.598-1.52-4.704-3.4-4.704z"/></g></g></svg>
