<svg width="54" height="49" viewBox="0 0 54 49" xmlns="http://www.w3.org/2000/svg"><title>Imported Layers 2</title><g fill="none" fill-rule="evenodd"><g fill="#D0D0D0"><path d="M15.255 30.105V13.89H5.318c-2.877 0-5.23 2.355-5.23 5.23v15.692c0 2.876 2.353 5.23 5.23 5.23h2.615v7.845l7.845-7.845h13.076c2.876 0 5.23-2.354 5.23-5.23v-4.76c-.17.034-.345.053-.523.053H15.256zM47.16.815H23.622c-2.876 0-5.23 2.354-5.23 5.23v20.922H36.7l7.844 7.845v-7.845h2.615c2.876 0 5.23-2.354 5.23-5.23V6.046c0-2.878-2.354-5.23-5.23-5.23z"/></g></g></svg>
