<svg width="614" height="1319" viewBox="0 0 614 1319" xmlns="http://www.w3.org/2000/svg" xmlns:xlink="http://www.w3.org/1999/xlink"><title>Railsbridge</title><defs><filter x="-50%" y="-50%" width="200%" height="200%" filterUnits="objectBoundingBox" id="a"><feOffset dy="4" in="SourceAlpha" result="shadowOffsetOuter1"/><feGaussianBlur stdDeviation="2" in="shadowOffsetOuter1" result="shadowBlurOuter1"/><feColorMatrix values="0 0 0 0 0 0 0 0 0 0 0 0 0 0 0 0 0 0 0.0542317708 0" in="shadowBlurOuter1" result="shadowMatrixOuter1"/><feMerge><feMergeNode in="shadowMatrixOuter1"/><feMergeNode in="SourceGraphic"/></feMerge></filter><linearGradient x1="31.346%" y1="0%" y2="183.286%" id="b"><stop stop-color="#FF9C0B" offset="0%"/><stop stop-color="#FF2A00" offset="70.962%"/><stop stop-color="#FF2A00" offset="100%"/></linearGradient><path id="c" d="M135.513.273H63.978l29.37 59.05L135.513.274"/><path id="d" d="M190.773 75.27L151.68 14.232 108.093 75.27h82.68"/><path id="e" d="M296.458 75.27l-49.085-61.446-29.36 61.446h78.445"/><path id="f" d="M231.294.273H167.69l36.42 56.876L231.295.272"/><path id="g" d="M48.94 15.952L1.797 75.27H78.45L48.94 15.952"/><path id="h" d="M6.347 89.332l123.38 143.75L85.28 89.333H6.347"/><path id="i" d="M172.998 233.514L291.825 89.332H212.9L173 233.514"/><path id="j" d="M103.82 89.332l47.86 154.762 42.84-154.762h-90.7"/></defs><g fill="none" fill-rule="evenodd"><g><g><g fill="#fff"><path d="M307.332 1250.597l-4.112-1.772L26.717 1129.92l8.22-18.782 272.395 117.137 272.363-117.137 8.228 18.783-280.59 120.677"/><path d="M307.318 1319.027L.788 1187.187l16.25-37.092 290.28 124.854 290.295-124.855 16.237 37.092-306.532 131.84"/><path d="M307.327 578.534c-97.498 0-176.814 78.622-176.814 175.262 0 96.635 79.316 175.25 176.814 175.25 97.48 0 176.792-78.615 176.792-175.25 0-96.64-79.313-175.262-176.793-175.262zm-.01 213.483c-21.286 0-38.555-17.12-38.555-38.22 0-21.11 17.27-38.223 38.556-38.223 21.3 0 38.56 17.113 38.56 38.222 0 21.1-17.26 38.22-38.56 38.22z"/><path d="M307.318 526.282C179.536 526.282 75.96 628.955 75.96 755.6c0 126.66 103.576 229.33 231.358 229.33 127.77 0 231.358-102.67 231.358-229.33 0-126.645-103.59-229.318-231.358-229.318zm.01 430.73c-113.056 0-205.02-91.165-205.02-203.216 0-112.06 91.964-203.22 205.02-203.22 113.032 0 205.002 91.16 205.002 203.22 0 112.05-91.97 203.215-205.003 203.215z"/><path d="M312.85 1194.05v.22l81.856-34.682-28.304-163.505c-16.58 3.983-33.846 6.313-51.53 6.84l-2.02 191.126"/><path d="M450.984 957.99l57 153.83 57.772-24.413-72.895-166.194c-12.504 13.76-26.57 26.074-41.876 36.777"/><path d="M416.45 1151.185l-.067.03.067.404 72.43-31.578-55.742-150.676c-14.445 8.373-29.797 15.332-45.895 20.723l29.207 161.095"/><path d="M125.243 1120.122l72.287 30.96 28.134-161.577c-15.937-5.462-31.142-12.462-45.42-20.857l-55 151.474"/><path d="M217.03 1159.433l79.602 34.098-.684-190.696c-17.31-.775-34.154-3.27-50.37-7.353l-28.55 163.953"/><path d="M121.77 921.22l-72.89 166.187 57.37 24.577 56.214-154.83c-14.843-10.505-28.515-22.536-40.693-35.933"/><path d="M375.42 517.35v-48.883H236.874v48.884c26.816-5.983 45.842-9.248 69.274-9.248 23.437 0 42.46 3.265 69.274 9.25"/><path d="M429.996 352.88h-245.36l55.106 91.094 135.188-.005 55.066-91.09" id="Fill-9"/></g><path d="M476.86 84.514L409.61 1.338H210.937l-78.96 97.657 11.923 14.31 154.488 180.748 11.885 14.273 11.89-14.273 154.484-180.747 11.923-14.31-11.71-14.482" fill="#fff" filter="url(#a)" transform="translate(-354 -1) translate(354)"/><g><g transform="translate(160.781 20.001)"><use fill="url(#b)" xlink:href="#c"/><use xlink:href="#c"/></g><g transform="translate(160.781 20.001)"><use fill="url(#b)" xlink:href="#d"/><use xlink:href="#d"/></g><g transform="translate(160.781 20.001)"><use fill="url(#b)" xlink:href="#e"/><use xlink:href="#e"/></g><g transform="translate(160.781 20.001)"><use fill="url(#b)" xlink:href="#f"/><use xlink:href="#f"/></g><g transform="translate(160.781 20.001)"><use fill="url(#b)" xlink:href="#g"/><use xlink:href="#g"/></g><g transform="translate(160.781 20.001)"><use fill="url(#b)" xlink:href="#h"/><use xlink:href="#h"/></g><g transform="translate(160.781 20.001)"><use fill="url(#b)" xlink:href="#i"/><use xlink:href="#i"/></g><g transform="translate(160.781 20.001)"><use fill="url(#b)" xlink:href="#j"/><use xlink:href="#j"/></g></g></g></g></g></svg>
