<?xml version="1.0" encoding="UTF-8" standalone="no"?>
<svg width="49px" height="37px" viewBox="0 0 49 37" version="1.1" xmlns="http://www.w3.org/2000/svg" xmlns:xlink="http://www.w3.org/1999/xlink" xmlns:sketch="http://www.bohemiancoding.com/sketch/ns">
    <!-- Generator: Sketch 3.0.4 (8054) - http://www.bohemiancoding.com/sketch -->
    <title>Imported Layers 3</title>
    <desc>Created with Sketch.</desc>
    <defs></defs>
    <g id="Page-2" stroke="none" stroke-width="1" fill="none" fill-rule="evenodd" sketch:type="MSPage">
        <g id="Flag-3" sketch:type="MSArtboardGroup" transform="translate(-351.500000, -1244.244444)" fill="#D0D0D0">
            <path d="M376.411673,1271.45607 C375.783271,1271.96126 374.767937,1271.96126 374.139535,1271.45607 L366.84018,1265.59822 C366.211777,1265.09303 365.193533,1265.09303 364.565131,1265.5953 L352,1275.66695 L352,1276.45832 C352,1277.74027 353.309171,1279.37848 354.909269,1279.37848 L395.63903,1279.37848 C397.239128,1279.37848 398.548299,1277.74027 398.548299,1276.45832 L398.548299,1275.66695 L385.983167,1265.5953 C385.354765,1265.09303 384.336521,1265.09303 383.708119,1265.59822 L376.411673,1271.45607 Z M390.114329,1262.28092 L397.413684,1268.14169 C398.039177,1268.64395 398.548299,1268.39866 398.548299,1267.5927 L398.548299,1255.14111 C398.548299,1254.33515 398.039177,1254.08985 397.410775,1254.59212 L390.114329,1260.45581 C389.485927,1260.95808 389.485927,1261.77573 390.114329,1262.28092 L390.114329,1262.28092 Z M354.909269,1244.3365 C353.309171,1244.3365 352,1245.97472 352,1247.25667 L374.017345,1264.84774 C374.648657,1265.35001 375.666901,1265.35293 376.298212,1264.85358 L398.548299,1247.25667 C398.548299,1245.97472 397.239128,1244.3365 395.63903,1244.3365 L354.909269,1244.3365 L354.909269,1244.3365 Z M352,1255.14111 L352,1267.5927 C352,1268.39866 352.509122,1268.64395 353.137524,1268.14169 L360.436879,1262.28092 C361.065281,1261.77573 361.065281,1260.961 360.436879,1260.45581 L353.137524,1254.59504 C352.509122,1254.08985 352,1254.33515 352,1255.14111 L352,1255.14111 Z" id="Imported-Layers-3" sketch:type="MSShapeGroup"></path>
        </g>
    </g>
</svg>