<svg width="49" height="37" viewBox="0 0 49 37" xmlns="http://www.w3.org/2000/svg"><title>Imported Layers 3</title><g fill="none" fill-rule="evenodd"><g fill="#D0D0D0"><path d="M24.912 27.212c-.63.505-1.644.505-2.272 0l-7.3-5.858c-.628-.505-1.646-.505-2.275-.003L.5 31.424v.79c0 1.283 1.31 2.92 2.91 2.92h40.73c1.6 0 2.908-1.637 2.908-2.92v-.79L34.483 21.35c-.628-.5-1.646-.5-2.275.004l-7.296 5.858zm13.702-9.176l7.3 5.86c.625.504 1.134.258 1.134-.548v-12.45c0-.807-.51-1.053-1.137-.55l-7.296 5.863c-.628.504-.628 1.32 0 1.826zM3.41.092C1.81.092.5 1.73.5 3.012l22.017 17.59c.632.504 1.65.506 2.28.007L47.048 3.01c0-1.282-1.308-2.92-2.908-2.92H3.41zM.5 10.897v12.45c0 .807.51 1.053 1.138.55l7.3-5.86c.627-.506.627-1.32 0-1.826l-7.3-5.86C1.008 9.846.5 10.09.5 10.898z"/></g></g></svg>