<?xml version="1.0" encoding="UTF-8" standalone="no"?>
<svg width="50px" height="43px" viewBox="0 0 50 43" version="1.1" xmlns="http://www.w3.org/2000/svg" xmlns:xlink="http://www.w3.org/1999/xlink" xmlns:sketch="http://www.bohemiancoding.com/sketch/ns">
    <!-- Generator: Sketch 3.0.4 (8054) - http://www.bohemiancoding.com/sketch -->
    <title>Imported Layers 4</title>
    <desc>Created with Sketch.</desc>
    <defs></defs>
    <g id="Page-2" stroke="none" stroke-width="1" fill="none" fill-rule="evenodd" sketch:type="MSPage">
        <g id="Flag-3" sketch:type="MSArtboardGroup" transform="translate(-901.500000, -1239.244444)" fill="#D0D0D0">
            <path d="M934.552333,1264.02016 C932.675233,1264.02016 931.151692,1266.12634 931.151692,1268.72572 C931.151692,1271.32511 932.675233,1273.43233 934.552333,1273.43233 C936.428909,1273.43233 937.950882,1271.32511 937.950882,1268.72572 C937.950882,1266.12634 936.428909,1264.02016 934.552333,1264.02016 L934.552333,1264.02016 Z M946.388676,1251.77325 C946.77623,1250.81823 946.795581,1245.39195 944.73072,1240.19842 C944.73072,1240.19842 939.9943,1240.71777 932.827431,1245.63515 C931.32481,1245.2204 928.780867,1245.01329 926.238493,1245.01329 C923.696119,1245.01329 921.153222,1245.2204 919.649555,1245.63515 C912.482686,1240.71777 907.746789,1240.19842 907.746789,1240.19842 C905.68245,1245.39195 905.700756,1250.81823 906.088309,1251.77325 C903.662045,1254.4082 902.179821,1257.57139 902.179821,1261.89463 C902.179821,1280.68759 917.770363,1280.98885 921.706048,1280.98885 C922.596742,1280.98885 924.367146,1280.99094 926.238493,1280.99355 C928.109839,1280.99094 929.881289,1280.98885 930.770937,1280.98885 C934.706622,1280.98885 950.297164,1280.68759 950.297164,1261.89463 C950.297164,1257.57139 948.814941,1254.4082 946.388676,1251.77325 L946.388676,1251.77325 Z M926.311715,1278.67869 L926.164748,1278.67869 C916.301215,1278.67869 908.620223,1277.50086 908.620223,1267.91505 C908.620223,1265.61954 909.430373,1263.48773 911.355066,1261.7189 C914.566899,1258.77119 919.998929,1260.33239 926.164748,1260.33239 C926.188283,1260.33239 926.213911,1260.33186 926.238493,1260.33082 C926.26412,1260.33186 926.288702,1260.33239 926.311715,1260.33239 C932.478057,1260.33239 937.911132,1258.77119 941.121919,1261.7189 C943.046613,1263.48773 943.856762,1265.61954 943.856762,1267.91505 C943.856762,1277.50086 936.17577,1278.67869 926.311715,1278.67869 L926.311715,1278.67869 Z M917.92413,1264.02016 C916.048076,1264.02016 914.525581,1266.12634 914.525581,1268.72572 C914.525581,1271.32511 916.048076,1273.43233 917.92413,1273.43233 C919.802798,1273.43233 921.324771,1271.32511 921.324771,1268.72572 C921.324771,1266.12634 919.802798,1264.02016 917.92413,1264.02016 L917.92413,1264.02016 Z" id="Imported-Layers-4" sketch:type="MSShapeGroup"></path>
        </g>
    </g>
</svg>