<?xml version="1.0" encoding="UTF-8" standalone="no"?>
<svg width="54px" height="49px" viewBox="0 0 54 49" version="1.1" xmlns="http://www.w3.org/2000/svg" xmlns:xlink="http://www.w3.org/1999/xlink" xmlns:sketch="http://www.bohemiancoding.com/sketch/ns">
    <!-- Generator: Sketch 3.0.4 (8054) - http://www.bohemiancoding.com/sketch -->
    <title>Imported Layers 2</title>
    <desc>Created with Sketch.</desc>
    <defs></defs>
    <g id="Page-2" stroke="none" stroke-width="1" fill="none" fill-rule="evenodd" sketch:type="MSPage">
        <g id="Flag-3" sketch:type="MSArtboardGroup" transform="translate(-627.500000, -1237.244444)" fill="#D0D0D0">
            <path d="M642.755186,1267.34914 L642.755186,1251.13569 L632.817909,1251.13569 C629.941329,1251.13569 627.587763,1253.48926 627.587763,1256.36584 L627.587763,1272.05628 C627.587763,1274.93286 629.941329,1277.28642 632.817909,1277.28642 L635.432982,1277.28642 L635.432982,1285.13164 L643.278201,1277.28642 L656.353566,1277.28642 C659.230146,1277.28642 661.583712,1274.93286 661.583712,1272.05628 L661.583712,1267.2958 C661.415301,1267.33032 661.239045,1267.34914 661.060697,1267.34914 L642.755186,1267.34914 L642.755186,1267.34914 Z M674.659076,1238.06033 L651.12342,1238.06033 C648.246839,1238.06033 645.893274,1240.41389 645.893274,1243.29047 L645.893274,1264.21106 L664.198785,1264.21106 L672.044003,1272.05628 L672.044003,1264.21106 L674.659076,1264.21106 C677.535657,1264.21106 679.889222,1261.85749 679.889222,1258.98091 L679.889222,1243.29047 C679.889222,1240.41389 677.535657,1238.06033 674.659076,1238.06033 L674.659076,1238.06033 Z" id="Imported-Layers-2" sketch:type="MSShapeGroup"></path>
        </g>
    </g>
</svg>