<?xml version="1.0" encoding="UTF-8" standalone="no"?>
<svg width="33px" height="67px" viewBox="0 0 33 67" version="1.1" xmlns="http://www.w3.org/2000/svg" xmlns:xlink="http://www.w3.org/1999/xlink" xmlns:sketch="http://www.bohemiancoding.com/sketch/ns">
    <!-- Generator: Sketch 3.0.4 (8054) - http://www.bohemiancoding.com/sketch -->
    <title>Logo: white, orange</title>
    <desc>Created with Sketch.</desc>
    <defs></defs>
    <g id="Page-2" stroke="none" stroke-width="1" fill="none" fill-rule="evenodd" sketch:type="MSPage">
        <g id="Flag-2.0" sketch:type="MSArtboardGroup" transform="translate(-597.500000, -46.244444)">
            <g id="Hero" sketch:type="MSLayerGroup">
                <g id="Nav" transform="translate(198.000000, 35.000000)" sketch:type="MSShapeGroup">
                    <g id="Logo:-white,-orange" transform="translate(399.500000, 11.363715)">
                        <g id="gem" transform="translate(9.000000, 0.000000)" fill="#FFFFFF">
                            <path d="M6.67492382,0 L3.04062456,0 L4.53276039,2.97682411 L6.67492382,0" id="Fill-1"></path>
                            <path d="M9.48234799,3.78069422 L7.49632448,0.703681712 L5.28180354,3.78069422 L9.48234799,3.78069422" id="Fill-2"></path>
                            <path d="M14.8515616,3.78069422 L12.3578454,0.683124187 L10.8661856,3.78069422 L14.8515616,3.78069422" id="Fill-3"></path>
                            <path d="M11.540967,0 L8.30963253,0 L10.1599857,2.86718398 L11.540967,0" id="Fill-4"></path>
                            <path d="M2.27658627,0.790401386 L-0.118352432,3.78069422 L3.77586265,3.78069422 L2.27658627,0.790401386" id="Fill-5"></path>
                            <path d="M0.1127632,4.48957439 L6.38097139,11.73622 L4.12289313,4.48957439 L0.1127632,4.48957439" id="Fill-6"></path>
                            <path d="M8.5793071,11.757959 L14.6161616,4.48957439 L10.6067458,4.48957439 L8.5793071,11.757959" id="Fill-7"></path>
                            <path d="M7.49632448,12.2912732 L9.67276252,4.48957439 L5.06473098,4.48957439 L7.49632448,12.2912732 Z" id="Fill-8"></path>
                        </g>
                        <g id="train" transform="translate(0.000000, 14.000000)" fill="#8BBEF9">
                            <path d="M16.3673186,47.5674239 L16.1483419,47.4729066 L1.42287255,41.1305557 L1.86058794,40.1286717 L16.3673186,46.3767415 L30.8723832,40.1286717 L31.3105746,41.1305557 L16.3673186,47.5674239" id="Fill-10"></path>
                            <path d="M16.3666046,51.2174479 L0.0418911958,44.1851204 L0.907325219,42.2066358 L16.3666046,48.8663287 L31.826598,42.2066358 L32.691318,44.1851204 L16.3666046,51.2174479" id="Fill-11"></path>
                            <path d="M16.3670806,11.7195902 C11.1747145,11.7195902 6.95060625,15.9133253 6.95060625,21.0680655 C6.95060625,26.2225695 11.1747145,30.415832 16.3670806,30.415832 C21.5584947,30.415832 25.7823649,26.2225695 25.7823649,21.0680655 C25.7823649,15.9133253 21.5584947,11.7195902 16.3670806,11.7195902 L16.3670806,11.7195902 Z M16.3666046,23.1068049 C15.2329241,23.1068049 14.3132219,22.1935309 14.3132219,21.0680655 C14.3132219,19.9421275 15.2329241,19.0293262 16.3666046,19.0293262 C17.5009991,19.0293262 18.4202253,19.9421275 18.4202253,21.0680655 C18.4202253,22.1935309 17.5009991,23.1068049 16.3666046,23.1068049 L16.3666046,23.1068049 Z" id="Fill-12"></path>
                            <path d="M16.3666046,8.93250968 C9.56142743,8.93250968 4.04535661,14.4090815 4.04535661,21.1642369 C4.04535661,27.9203375 9.56142743,33.3966731 16.3666046,33.3966731 C23.1710677,33.3966731 28.6878526,27.9203375 28.6878526,21.1642369 C28.6878526,14.4090815 23.1710677,8.93250968 16.3666046,8.93250968 L16.3666046,8.93250968 Z M16.3670806,31.9075522 C10.3461733,31.9075522 5.44847366,27.0448705 5.44847366,21.0680655 C5.44847366,15.090788 10.3461733,10.2283426 16.3670806,10.2283426 C22.3867979,10.2283426 27.2847355,15.090788 27.2847355,21.0680655 C27.2847355,27.0448705 22.3867979,31.9075522 16.3670806,31.9075522 L16.3670806,31.9075522 Z" id="Fill-13"></path>
                            <path d="M16.6612711,44.5511388 L16.6612711,44.5629535 L21.0205736,42.7130125 L19.5132046,33.9916599 C18.6301573,34.2040876 17.7106931,34.3283779 16.7688553,34.3564968 L16.6612711,44.5511388" id="Fill-14"></path>
                            <path d="M24.0176983,31.959773 L27.0533819,40.1650609 L30.1300046,38.8628481 L26.2479284,29.9980653 C25.5819536,30.7319926 24.8329105,31.3888882 24.0176983,31.959773" id="Fill-15"></path>
                            <path d="M22.178532,42.264764 L22.1749617,42.266418 L22.178532,42.2879207 L26.0358542,40.6036215 L23.0672918,32.5665744 C22.2980171,33.0131689 21.4804247,33.3843858 20.6230833,33.6719549 L22.178532,42.264764" id="Fill-16"></path>
                            <path d="M6.66998284,40.6078747 L10.5196885,42.2593292 L12.0180128,33.6407642 C11.1692401,33.3494144 10.3595023,32.9760709 9.5990343,32.5282949 L6.66998284,40.6078747" id="Fill-17"></path>
                            <path d="M11.5581618,42.7047423 L15.7975032,44.5234925 L15.7610864,34.351771 C14.8392421,34.3104196 13.9421516,34.1773865 13.0786217,33.959524 L11.5581618,42.7047423" id="Fill-18"></path>
                            <path d="M6.48504273,29.9985379 L2.60320459,38.8628481 L5.65840567,40.1738038 L8.65219806,31.9151136 C7.86173976,31.3548619 7.13364222,30.7130891 6.48504273,29.9985379" id="Fill-19"></path>
                            <path d="M19.9935253,8.4561422 L19.9935253,5.84864466 L12.6149624,5.84864466 L12.6149624,8.4561422 C14.0430713,8.13690984 15.0563146,7.96276161 16.3042438,7.96276161 C17.552411,7.96276161 18.5654163,8.13690984 19.9935253,8.4561422" id="Fill-20"></path>
                            <path d="M22.899965,-0.316722441 L9.83300615,-0.316722441 L12.76777,4.54217851 L19.9673433,4.54194222 L22.899965,-0.316722441" id="Fill-9"></path>
                        </g>
                    </g>
                </g>
            </g>
        </g>
    </g>
</svg>