<?xml version="1.0" encoding="UTF-8" standalone="no"?>
<svg width="50px" height="40px" viewBox="0 0 50 40" version="1.1" xmlns="http://www.w3.org/2000/svg" xmlns:xlink="http://www.w3.org/1999/xlink" xmlns:sketch="http://www.bohemiancoding.com/sketch/ns">
    <!-- Generator: Sketch 3.0.4 (8054) - http://www.bohemiancoding.com/sketch -->
    <title>Imported Layers 5</title>
    <desc>Created with Sketch.</desc>
    <defs></defs>
    <g id="Page-2" stroke="none" stroke-width="1" fill="none" fill-rule="evenodd" sketch:type="MSPage">
        <g id="Flag-3" sketch:type="MSArtboardGroup" transform="translate(-76.500000, -1242.244444)" fill="#D0D0D0">
            <path d="M125.117343,1246.87312 C123.345892,1247.65869 121.443688,1248.18851 119.446818,1248.42752 C121.485529,1247.20576 123.050389,1245.27113 123.788363,1242.9662 C121.879882,1244.09696 119.767426,1244.91862 117.518987,1245.36161 C115.718247,1243.44267 113.152338,1242.24444 110.313415,1242.24444 C104.86151,1242.24444 100.441514,1246.66392 100.441514,1252.11582 C100.441514,1252.88936 100.528335,1253.64302 100.696745,1254.36531 C92.4932613,1253.95422 85.2170823,1250.02376 80.3493855,1244.05094 C79.4994867,1245.5091 79.0120371,1247.20471 79.0120371,1249.01382 C79.0120371,1252.43852 80.7547218,1255.45945 83.4037907,1257.23038 C81.7866296,1257.17965 80.2636111,1256.73613 78.9325389,1255.99659 C78.9314929,1256.03739 78.9314929,1256.07818 78.9314929,1256.12002 C78.9314929,1260.90351 82.3352719,1264.89359 86.8504569,1265.79998 C86.0230478,1266.02592 85.1506594,1266.14673 84.2495053,1266.14673 C83.6140426,1266.14673 82.9958393,1266.08502 82.3922805,1265.96943 C83.6485615,1269.891 87.2955423,1272.74561 91.6145968,1272.82511 C88.2353995,1275.47313 83.9796298,1277.05159 79.3546117,1277.05159 C78.5575375,1277.05159 77.7719695,1277.00452 77,1276.91194 C81.3676949,1279.71426 86.5559996,1281.3492 92.1323812,1281.3492 C110.289879,1281.3492 120.219834,1266.30573 120.219834,1253.25965 C120.219834,1252.83287 120.210943,1252.40714 120.191591,1251.98245 C122.119946,1250.59176 123.79307,1248.85326 125.117343,1246.87312" id="Imported-Layers-5" sketch:type="MSShapeGroup"></path>
        </g>
    </g>
</svg>