<svg width="50" height="40" viewBox="0 0 50 40" xmlns="http://www.w3.org/2000/svg"><title>Imported Layers 5</title><g fill="none" fill-rule="evenodd"><g fill="#D0D0D0"><path d="M48.617 4.63c-1.77.784-3.673 1.314-5.67 1.553 2.04-1.222 3.603-3.156 4.34-5.46-1.907 1.13-4.02 1.95-6.268 2.394C39.217 1.197 36.65 0 33.812 0c-5.45 0-9.87 4.42-9.87 9.87 0 .775.085 1.53.254 2.25-8.204-.41-15.48-4.34-20.348-10.314C3 3.266 2.51 4.96 2.51 6.77c0 3.424 1.743 6.445 4.392 8.216-1.617-.05-3.14-.494-4.47-1.234-.003.04-.003.082-.003.124 0 4.783 3.405 8.773 7.92 9.68-.827.225-1.7.346-2.6.346-.636 0-1.254-.06-1.858-.177 1.257 3.922 4.904 6.776 9.223 6.856-3.38 2.65-7.635 4.227-12.26 4.227-.797 0-1.583-.047-2.355-.14 4.368 2.803 9.556 4.438 15.132 4.438 18.158 0 28.088-15.044 28.088-28.09 0-.427-.01-.852-.028-1.277 1.928-1.39 3.6-3.13 4.925-5.11"/></g></g></svg>
